<svg width="1920" height="967" viewBox="0 0 1920 967" fill="none" xmlns="http://www.w3.org/2000/svg">
<path d="M1586 419C1701.98 419 1796 325.204 1796 209.5C1796 93.7964 1701.98 0 1586 0C1470.02 0 1376 93.7964 1376 209.5C1376 325.204 1470.02 419 1586 419Z" fill="url(#paint0_radial_62_2166)"/>
<path d="M1918.36 88.7064C1893.27 82.3495 1865.31 75.0391 1857.06 72.8142C1841.81 69 1818.62 69 1818.62 69L1772.56 103.645L1722.68 107.459L1680.44 138.29L1638.5 176.749C1638.5 176.749 1577.19 180.563 1565.44 188.191C1554.01 195.82 1515.57 215.208 1515.57 215.208L1461.88 219.022C1461.88 219.022 1388.82 211.394 1373.57 211.394C1358.33 211.394 1319.89 203.766 1308.45 203.766C1297.02 203.766 1206.8 178.656 1206.8 178.656C1206.8 178.656 1143.27 202.177 1131.83 205.991C1120.4 209.805 1092.44 238.411 1092.44 238.411L1059.09 272.738C1059.09 272.738 1001.59 280.366 990.154 280.366C978.719 280.366 951.717 257.481 951.717 257.481C951.717 257.481 894.22 249.853 882.784 246.039C871.349 242.225 832.911 242.225 821.476 238.411C810.04 234.597 771.603 226.968 740.789 211.394C709.976 196.138 687.104 176.749 675.668 172.935C664.233 169.121 618.172 153.864 594.982 157.678C572.11 161.493 529.861 169.121 502.86 169.121C475.859 169.121 429.798 169.121 387.866 157.678C345.617 146.236 257.307 96.3346 242.059 84.5744C226.811 73.132 149.937 92.2026 107.688 107.459C85.1336 115.723 38.4372 123.987 0 129.708V582H1919V88.7064H1918.36Z" fill="url(#paint1_linear_62_2166)"/>
<path opacity="0.55" d="M836.231 499.409L1355.52 492.741L1476.67 371.748L1534.86 293.309L1506.56 216.141L1462.36 219.316C1462.36 219.316 1389.22 211.695 1373.96 211.695C1364.74 211.695 1346.61 208.837 1331.67 206.614C1326.58 218.046 1319.58 230.114 1311 237.1C1292.23 252.343 1235.95 260.917 1220.37 262.823C1205.1 264.411 1184.43 288.546 1172.67 298.708C1160.58 308.87 1123.06 339.674 1102.71 344.755C1082.36 349.836 1044.52 354.917 1029.25 351.424C1013.99 347.931 991.73 351.424 967.881 336.181C944.031 320.937 931.948 312.363 908.098 305.377C884.248 298.708 833.051 313.951 820.968 305.377C808.884 296.802 745.921 259.33 715.076 235.512C684.23 211.695 689.318 198.039 645.117 174.222C630.807 166.6 616.816 161.202 604.096 157.708C600.28 157.708 597.1 157.708 593.92 158.344C571.343 162.154 530.639 169.458 503.61 169.776C486.438 180.256 470.539 190.418 467.359 189.783C460.681 188.195 414.572 220.587 414.572 220.587C414.572 220.587 380.228 250.755 370.689 253.613C386.588 263.14 477.535 339.991 477.535 339.991L836.231 499.409Z" fill="#47ABAD"/>
<path d="M370.689 247.58C369.099 246.627 368.145 246.309 368.463 246.944C368.463 247.897 369.417 248.215 370.689 247.58Z" fill="#47ABAD"/>
<path d="M1919 183.972C1877.7 166.847 1799.56 133.548 1752.54 124.668C1691.24 113.251 1695.05 109.445 1664.23 101.834C1633.42 94.2226 1545.11 79 1522.24 98.0282C1499.37 117.056 1411.06 186.192 1391.68 197.609C1372.62 209.026 1295.75 235.983 1276.69 255.011C1257.63 274.039 1084.82 362.204 1034.94 354.592C985.072 346.981 785.58 281.651 712.517 251.205C639.455 220.443 559.086 170.653 520.649 147.819C482.212 124.985 378.654 79 355.465 79C332.275 79 224.905 113.568 202.033 117.374C179.162 121.179 113.723 144.33 63.8502 144.33C45.4258 144.33 21.9187 145.916 0 147.819V562H1919V183.972Z" fill="url(#paint2_linear_62_2166)"/>
<path d="M63.7684 143.781C45.3676 143.781 21.8906 145.369 0 147.274V562H763C562.494 462.288 300.758 327.327 284.896 296.207C259.198 245.081 433.054 158.071 427.978 135.207C422.902 112.343 355.009 79 355.009 79C332.167 79 224.617 113.613 201.775 117.424C178.932 120.917 113.578 143.781 63.7684 143.781Z" fill="url(#paint3_linear_62_2166)"/>
<path d="M1664.29 101.48C1637.58 94.811 1566.66 82.1083 1533.59 91.9529V96.3988C1533.59 96.3988 1510.7 147.527 1515.78 173.25C1520.87 198.973 1602.91 250.101 1602.91 303.769C1602.91 337.749 1442.33 468.904 1321.49 562.268H1919.32V183.729C1877.98 166.581 1799.75 133.236 1752.69 124.345C1691 113.23 1694.81 109.419 1664.29 101.48Z" fill="url(#paint4_linear_62_2166)"/>
<path opacity="0.55" d="M1 412.186C6.08176 462.336 11.4811 514.39 16.5629 562H1919.65L1920 44L1834.25 55.4264C1834.25 55.4264 1852.03 93.8321 1836.79 119.224C1821.54 144.934 1762.47 172.865 1729.43 177.944C1696.08 183.022 1663.05 203.653 1629.7 213.81C1596.36 223.967 1611.92 231.585 1563.32 272.529C1514.73 313.474 1512.19 341.406 1420.08 372.194C1327.97 402.982 1151.38 418.217 1064.36 415.678C977.333 413.139 754.689 359.498 708.635 351.88C662.582 344.262 562.852 295.7 519.34 269.99C475.827 244.281 388.802 211.271 360.852 203.653C332.585 196.036 209.987 201.114 179.179 193.496C148.371 185.879 130.585 144.934 120.421 144.934C113.116 144.934 40.3836 155.726 1.31761 164.613V412.186H1Z" fill="#329EA2"/>
<path d="M1920 67.6455C1909.83 79.7384 1807.19 148.937 1791.94 152.967C1776.68 156.998 1726.79 189.582 1668.96 230.228C1611.44 270.873 1545.98 372.319 1496.09 396.505C1446.2 420.69 1365.48 457.305 1327.03 457.305C1288.58 457.305 1050.57 461.336 1019.74 457.305C988.918 453.274 685.76 392.474 632.056 376.014C578.352 359.89 432.493 270.537 397.855 258.444C370.209 248.703 105.819 153.975 0 115.681L0 967H1920V69V67.6455Z" fill="url(#paint5_linear_62_2166)"/>
<defs>
<radialGradient id="paint0_radial_62_2166" cx="0" cy="0" r="1" gradientUnits="userSpaceOnUse" gradientTransform="translate(1603.68 244.911) scale(317.326 316.57)">
<stop stop-color="#FFC138"/>
<stop offset="1" stop-color="#FFF9EB"/>
</radialGradient>
<linearGradient id="paint1_linear_62_2166" x1="951.516" y1="6.82719" x2="963.044" y2="517.58" gradientUnits="userSpaceOnUse">
<stop stop-color="#C1F6E9"/>
<stop offset="1" stop-color="#25969D"/>
</linearGradient>
<linearGradient id="paint2_linear_62_2166" x1="913.87" y1="-275.409" x2="967.426" y2="487.112" gradientUnits="userSpaceOnUse">
<stop stop-color="#C1F6E9"/>
<stop offset="1" stop-color="#24959D"/>
</linearGradient>
<linearGradient id="paint3_linear_62_2166" x1="454.077" y1="-8.16039" x2="369.591" y2="413.872" gradientUnits="userSpaceOnUse">
<stop stop-color="white"/>
<stop offset="1" stop-color="#8CD6C1"/>
</linearGradient>
<linearGradient id="paint4_linear_62_2166" x1="1730.3" y1="12.6938" x2="1649.83" y2="415.564" gradientUnits="userSpaceOnUse">
<stop stop-color="white"/>
<stop offset="1" stop-color="#87D5BE"/>
</linearGradient>
<linearGradient id="paint5_linear_62_2166" x1="960" y1="67.6455" x2="960" y2="591.334" gradientUnits="userSpaceOnUse">
<stop stop-color="#39A2A7"/>
<stop offset="1" stop-color="#39A2A7"/>
</linearGradient>
</defs>
</svg>
