<svg width="342" height="172" viewBox="0 0 342 172" fill="none" xmlns="http://www.w3.org/2000/svg">
<path d="M217.586 63.3381L215.051 63.6555L222.974 46.835L225.192 47.7871L217.586 63.3381Z" fill="#44B5BA"/>
<path fill-rule="evenodd" clip-rule="evenodd" d="M222.727 46.1846L225.872 47.5343L217.916 63.8002L214.211 64.264L222.727 46.1846ZM223.22 47.4844L215.89 63.046L217.256 62.8751L224.512 48.0389L223.22 47.4844Z" fill="#44B5BA"/>
<path d="M120.927 63.3381L123.78 63.6555L116.174 47.4697L113.955 48.4218L120.927 63.3381Z" fill="#44B5BA"/>
<path fill-rule="evenodd" clip-rule="evenodd" d="M116.421 46.8203L124.612 64.2519L120.593 63.8047L113.284 48.1666L116.421 46.8203ZM114.627 48.6784L121.261 62.8729L122.947 63.0605L115.927 48.1205L114.627 48.6784Z" fill="#44B5BA"/>
<path d="M46.4549 121.946L45.7491 124.384L80.7547 134.545L81.4605 132.106L46.4549 121.946Z" fill="#44B5BA"/>
<path fill-rule="evenodd" clip-rule="evenodd" d="M45.1299 124.725L46.1137 121.326L82.0797 131.765L81.0959 135.165L45.1299 124.725ZM46.3683 124.043L80.4135 133.925L80.8413 132.447L46.7961 122.565L46.3683 124.043Z" fill="#44B5BA"/>
<path d="M296.114 122.09L261.108 132.251L261.814 134.69L296.82 124.529L296.114 122.09Z" fill="#44B5BA"/>
<path fill-rule="evenodd" clip-rule="evenodd" d="M260.489 131.91L296.455 121.471L297.439 124.87L261.473 135.309L260.489 131.91ZM261.728 132.592L262.155 134.07L296.201 124.188L295.773 122.71L261.728 132.592Z" fill="#44B5BA"/>
<path d="M272.412 86.8231L265.123 79.2063L257.517 71.9068L264.806 62.7031L273.363 70.9547L281.603 79.5237L272.412 86.8231ZM260.687 71.9068L266.708 77.6194L272.412 83.6495L278.117 79.2063L271.779 72.5416L265.123 66.1942L260.687 71.9068Z" fill="#44B5BA"/>
<path fill-rule="evenodd" clip-rule="evenodd" d="M264.757 61.9609L273.717 70.6017L282.344 79.5737L272.366 87.4986L264.77 79.5601L256.843 71.9532L264.757 61.9609ZM264.856 63.4461L258.192 71.8612L265.477 78.8533L272.458 86.1484L280.862 79.4744L273.009 71.3084L264.856 63.4461ZM265.068 65.4508L272.133 72.1885L278.86 79.262L272.361 84.3234L266.354 77.9733L260.014 71.9582L265.068 65.4508ZM265.179 66.9384L261.359 71.8562L267.062 77.2664L272.464 82.9763L277.374 79.1513L271.425 72.8954L265.179 66.9384Z" fill="#44B5BA"/>
<path d="M69.5871 87.14L60.3966 79.8405L68.6364 71.2716L77.1931 63.02L84.4821 72.2237L76.8762 79.5232L69.5871 87.14ZM63.5658 79.5232L69.2702 83.9663L74.9747 77.9363L80.9961 72.2237L76.5593 66.5111L69.904 72.8584L63.5658 79.5232Z" fill="#44B5BA"/>
<path fill-rule="evenodd" clip-rule="evenodd" d="M77.2428 62.2773L85.1563 72.2696L77.23 79.8765L69.6331 87.815L59.6552 79.8901L68.2825 70.9181L77.2428 62.2773ZM68.9902 71.6248L61.138 79.7908L69.5411 86.4648L76.5222 79.1697L83.8079 72.1776L77.1433 63.7625L68.9902 71.6248ZM76.6146 65.7672L81.6687 72.2746L75.3286 78.2896L69.3213 84.6398L62.8231 79.5784L69.5501 72.5049L76.6146 65.7672ZM70.2579 73.2117L64.3083 79.4677L69.2191 83.2927L74.6207 77.5828L80.3233 72.1726L76.5038 67.2548L70.2579 73.2117Z" fill="#44B5BA"/>
<path d="M181.141 39.5346H170.683H160.225L158.64 27.792L170.683 27.4746L182.409 27.792L181.141 39.5346ZM170.683 36.9957H179.24L180.19 29.6962L171 30.0136H161.492L162.443 37.313L170.683 36.9957Z" fill="#44B5BA"/>
<path fill-rule="evenodd" clip-rule="evenodd" d="M170.683 26.9746L182.964 27.307L181.59 40.0348H159.788L158.07 27.307L170.683 26.9746ZM159.21 28.2773L160.662 39.0348H180.692L181.853 28.2773L170.683 27.975L159.21 28.2773ZM180.762 29.1763L179.679 37.4958H170.693L162.006 37.8304L160.923 29.5137H170.991L180.762 29.1763ZM179.618 30.2164L171.008 30.5137H162.062L162.88 36.796L170.673 36.4958H178.8L179.618 30.2164Z" fill="#44B5BA"/>
<path d="M183.043 75.0814L178.289 38.584H176.07L180.507 73.8119C181.141 74.1293 182.092 74.4466 183.043 75.0814Z" fill="#44B5BA"/>
<path fill-rule="evenodd" clip-rule="evenodd" d="M175.504 38.084H178.728L183.681 76.1085L182.765 75.4972C182.139 75.0793 181.552 74.8247 181.014 74.5913C180.759 74.4808 180.515 74.3751 180.283 74.259L180.045 74.1394L175.504 38.084ZM176.637 39.084L180.969 73.4769C181.072 73.5233 181.185 73.5726 181.307 73.6255C181.632 73.7671 182.015 73.9343 182.416 74.1394L177.85 39.084H176.637Z" fill="#44B5BA"/>
<path d="M161.176 73.1772L165.612 38.9014H163.394L158.64 75.7161C159.274 74.764 160.225 74.1293 161.176 73.1772Z" fill="#44B5BA"/>
<path fill-rule="evenodd" clip-rule="evenodd" d="M162.954 38.4014H166.181L161.65 73.4101L161.529 73.5305C161.189 73.8717 160.839 74.1811 160.518 74.4657C160.381 74.5869 160.249 74.7036 160.126 74.8164C159.698 75.2053 159.339 75.5691 159.056 75.9932L158.144 75.6521L162.954 38.4014ZM163.833 39.4014L159.343 74.1773C159.379 74.1436 159.416 74.1102 159.452 74.0769C159.596 73.9461 159.739 73.8196 159.882 73.6933C160.153 73.4526 160.425 73.2122 160.702 72.9424L165.043 39.4014H163.833Z" fill="#44B5BA"/>
<path d="M170.683 22.7151C166.563 22.7151 163.077 19.2241 163.077 15.0983C163.077 10.9725 166.563 7.48145 170.683 7.48145C174.803 7.48145 178.289 10.9725 178.289 15.0983C178.606 19.5414 175.12 22.7151 170.683 22.7151ZM170.683 9.70303C167.831 9.70303 165.295 12.242 165.295 15.0983C165.295 17.9546 167.831 20.4936 170.683 20.4936C173.535 20.4936 176.07 17.9546 176.07 15.0983C176.07 12.242 173.852 9.70303 170.683 9.70303Z" fill="#44B5BA"/>
<path fill-rule="evenodd" clip-rule="evenodd" d="M170.683 7.98145C166.84 7.98145 163.577 11.248 163.577 15.0983C163.577 18.9486 166.84 22.2151 170.683 22.2151C174.879 22.2151 178.083 19.2405 177.79 15.1339L177.789 15.1161V15.0983C177.789 11.248 174.526 7.98145 170.683 7.98145ZM162.577 15.0983C162.577 10.697 166.286 6.98145 170.683 6.98145C175.074 6.98145 178.779 10.687 178.789 15.0804C179.119 19.8507 175.355 23.2151 170.683 23.2151C166.286 23.2151 162.577 19.4995 162.577 15.0983ZM164.795 15.0983C164.795 11.9665 167.554 9.20303 170.683 9.20303C174.148 9.20303 176.57 11.9859 176.57 15.0983C176.57 18.2301 173.812 20.9936 170.683 20.9936C167.554 20.9936 164.795 18.2301 164.795 15.0983ZM170.683 10.203C168.108 10.203 165.795 12.5174 165.795 15.0983C165.795 17.6791 168.108 19.9936 170.683 19.9936C173.258 19.9936 175.57 17.6791 175.57 15.0983C175.57 12.498 173.556 10.203 170.683 10.203Z" fill="#44B5BA"/>
<path d="M60.7136 67.4637C59.129 67.4637 57.2275 66.829 55.9598 65.5595C53.4245 63.0206 53.4245 58.5774 55.9598 56.0385C58.4952 53.4995 62.932 53.4995 65.4673 56.0385C68.0026 58.5774 68.0026 63.0206 65.4673 65.5595C64.1996 66.829 62.2981 67.4637 60.7136 67.4637ZM60.7136 56.3559C59.4459 56.3559 58.4952 56.6732 57.5444 57.6253C55.9598 59.2122 55.9598 62.0685 57.5444 63.6553C59.129 65.2422 61.9812 65.2422 63.5658 63.6553C65.1504 62.0685 65.1504 59.2122 63.5658 57.6253C62.932 56.9906 61.9812 56.3559 60.7136 56.3559Z" fill="#44B5BA"/>
<path fill-rule="evenodd" clip-rule="evenodd" d="M65.1135 56.3918C62.7735 54.0484 58.6536 54.0484 56.3136 56.3918C53.9733 58.7355 53.9733 62.8625 56.3136 65.2062C57.4734 66.3677 59.2404 66.9637 60.7136 66.9637C62.1867 66.9637 63.9537 66.3677 65.1135 65.2062C67.4539 62.8625 67.4539 58.7355 65.1135 56.3918ZM55.606 55.6852C58.3367 52.9506 63.0904 52.9506 65.8211 55.6852C68.5513 58.4193 68.5513 63.1787 65.8211 65.9128C64.4456 67.2903 62.4095 67.9637 60.7136 67.9637C59.0176 67.9637 56.9816 67.2903 55.606 65.9128C52.8758 63.1787 52.8758 58.4193 55.606 55.6852ZM58.8304 56.167C59.4186 55.9404 60.0379 55.8559 60.7136 55.8559C62.1609 55.8559 63.2313 56.5828 63.9196 57.272C65.6991 59.0541 65.6991 62.2266 63.9196 64.0086C62.1397 65.7911 58.9705 65.7911 57.1906 64.0086C55.4111 62.2266 55.4111 59.0541 57.1906 57.272C57.7072 56.7547 58.24 56.3944 58.8304 56.167ZM59.1899 57.1001C58.7503 57.2695 58.3324 57.5439 57.8982 57.9786C56.5086 59.3703 56.5086 61.9104 57.8982 63.302C59.2875 64.6933 61.8227 64.6933 63.212 63.302C64.6016 61.9104 64.6016 59.3703 63.212 57.9786C62.6326 57.3984 61.8016 56.8559 60.7136 56.8559C60.1215 56.8559 59.6317 56.93 59.1899 57.1001Z" fill="#44B5BA"/>
<path d="M280.652 67.4637C278.751 67.4637 277.166 66.829 275.899 65.5595C274.631 64.2901 273.997 62.7032 273.997 60.799C273.997 58.8948 274.631 57.308 275.899 56.0385C277.166 54.769 278.751 54.1343 280.652 54.1343C282.554 54.1343 284.138 54.769 285.406 56.0385C286.674 57.308 287.307 58.8948 287.307 60.799C287.307 62.7032 286.674 64.2901 285.406 65.5595C284.138 66.829 282.554 67.4637 280.652 67.4637ZM280.652 56.3559C279.385 56.3559 278.434 56.6732 277.483 57.6253C276.532 58.5774 276.215 59.5295 276.215 60.799C276.215 62.0685 276.532 63.0206 277.483 63.9727C279.068 65.5595 281.92 65.5595 283.505 63.9727C284.455 63.0206 284.772 62.0685 284.772 60.799C284.772 59.5295 284.455 58.5774 283.505 57.6253C283.188 56.9906 281.92 56.3559 280.652 56.3559Z" fill="#44B5BA"/>
<path fill-rule="evenodd" clip-rule="evenodd" d="M280.652 54.6343C278.875 54.6343 277.42 55.2223 276.252 56.3918C275.085 57.5613 274.497 59.0183 274.497 60.799C274.497 62.5798 275.085 64.0367 276.252 65.2062C277.42 66.3757 278.875 66.9637 280.652 66.9637C282.43 66.9637 283.884 66.3757 285.052 65.2062C286.22 64.0367 286.807 62.5798 286.807 60.799C286.807 59.0183 286.22 57.5613 285.052 56.3918C283.884 55.2223 282.43 54.6343 280.652 54.6343ZM275.545 55.6852C276.912 54.3157 278.627 53.6343 280.652 53.6343C282.678 53.6343 284.392 54.3157 285.76 55.6852C287.127 57.0546 287.807 58.7713 287.807 60.799C287.807 62.8267 287.127 64.5434 285.76 65.9128C284.392 67.2823 282.678 67.9637 280.652 67.9637C278.627 67.9637 276.912 67.2823 275.545 65.9128C274.177 64.5434 273.497 62.8267 273.497 60.799C273.497 58.7713 274.177 57.0546 275.545 55.6852ZM278.769 56.167C279.357 55.9404 279.977 55.8559 280.652 55.8559C281.365 55.8559 282.07 56.033 282.645 56.2987C283.168 56.5406 283.66 56.8923 283.91 57.3245C284.399 57.8255 284.742 58.3429 284.962 58.9139C285.188 59.5027 285.272 60.1226 285.272 60.799C285.272 61.4754 285.188 62.0954 284.962 62.6841C284.735 63.2751 284.375 63.8087 283.858 64.326C282.078 66.1084 278.909 66.1084 277.129 64.326C276.613 63.8087 276.253 63.2751 276.026 62.6841C275.8 62.0954 275.715 61.4754 275.715 60.799C275.715 60.1226 275.8 59.5027 276.026 58.9139C276.253 58.3229 276.613 57.7894 277.129 57.272C277.646 56.7547 278.179 56.3944 278.769 56.167ZM279.129 57.1001C278.689 57.2695 278.271 57.5439 277.837 57.9786C277.403 58.4134 277.129 58.832 276.96 59.2724C276.79 59.7151 276.715 60.206 276.715 60.799C276.715 61.3921 276.79 61.8829 276.96 62.3256C277.129 62.7661 277.403 63.1846 277.837 63.6194C279.226 65.0106 281.761 65.0106 283.151 63.6194C283.585 63.1846 283.859 62.7661 284.028 62.3256C284.198 61.8829 284.272 61.3921 284.272 60.799C284.272 60.206 284.198 59.7151 284.028 59.2724C283.859 58.832 283.585 58.4134 283.151 57.9786L283.093 57.9212L283.057 57.8487C282.974 57.6816 282.701 57.4263 282.225 57.2064C281.77 56.996 281.207 56.8559 280.652 56.8559C280.06 56.8559 279.57 56.93 279.129 57.1001Z" fill="#44B5BA"/>
<path d="M170.683 17.3201C171.908 17.3201 172.901 16.3255 172.901 15.0985C172.901 13.8716 171.908 12.877 170.683 12.877C169.458 12.877 168.465 13.8716 168.465 15.0985C168.465 16.3255 169.458 17.3201 170.683 17.3201Z" fill="#44B5BA"/>
<path fill-rule="evenodd" clip-rule="evenodd" d="M170.683 13.377C169.735 13.377 168.965 14.1471 168.965 15.0985C168.965 16.05 169.735 16.8201 170.683 16.8201C171.631 16.8201 172.401 16.05 172.401 15.0985C172.401 14.1471 171.631 13.377 170.683 13.377ZM167.965 15.0985C167.965 13.5961 169.181 12.377 170.683 12.377C172.185 12.377 173.401 13.5961 173.401 15.0985C173.401 16.6009 172.185 17.8201 170.683 17.8201C169.181 17.8201 167.965 16.6009 167.965 15.0985Z" fill="#44B5BA"/>
<path d="M261.32 69.3686C239.453 50.0091 211.565 37.6317 180.824 35.4102L180.507 37.6317C210.931 39.8533 238.503 51.9133 260.053 71.2728L261.32 69.3686Z" fill="#44B5BA"/>
<path fill-rule="evenodd" clip-rule="evenodd" d="M180.395 34.8779L180.86 34.9115C211.714 37.1413 239.706 49.5647 261.652 68.9943L261.978 69.2831L260.149 72.0311L259.719 71.6448C238.25 52.359 210.783 40.344 180.471 38.1305L179.937 38.0915L180.395 34.8779ZM181.253 35.9433L181.078 37.1732C211.199 39.4888 238.515 51.4206 259.956 70.5157L260.662 69.4548C239.034 50.4282 211.544 38.2358 181.253 35.9433Z" fill="#44B5BA"/>
<path d="M82.2637 71.2728C103.497 52.2307 131.069 39.8533 161.492 37.6317L161.175 35.4102C130.435 37.6317 102.546 50.3265 80.996 69.686L82.2637 71.2728Z" fill="#44B5BA"/>
<path fill-rule="evenodd" clip-rule="evenodd" d="M161.605 34.8779L162.063 38.0915L161.529 38.1305C131.219 40.3438 103.751 52.6746 82.5976 71.6451L82.2035 71.9985L80.3109 69.6294L80.6619 69.3141C102.29 49.8843 130.282 37.1415 161.139 34.9115L161.605 34.8779ZM81.6818 69.7433L82.3247 70.5481C103.459 51.7452 130.784 39.4937 160.922 37.1732L160.746 35.9434C130.472 38.2378 102.996 50.7287 81.6818 69.7433Z" fill="#44B5BA"/>
<path d="M37.8957 161.722C39.7972 132.524 51.2061 106.183 68.9533 84.9189L67.0518 83.332C48.9877 104.596 37.5788 131.572 35.6773 161.087L37.8957 161.722Z" fill="#44B5BA"/>
<path fill-rule="evenodd" clip-rule="evenodd" d="M66.9917 82.6309L69.6576 84.8556L69.3372 85.2395C51.6532 106.428 40.2888 132.67 38.3947 161.755L38.3544 162.374L35.1525 161.457L35.1784 161.055C37.0869 131.43 48.5387 104.352 66.6708 83.0086L66.9917 82.6309ZM67.1128 84.0343C49.3837 105.062 38.1627 131.644 36.2028 160.718L37.4385 161.071C39.4549 132.183 50.7469 106.105 68.2498 84.9832L67.1128 84.0343Z" fill="#44B5BA"/>
<path d="M306.639 161.722C304.738 131.889 293.012 104.913 274.948 83.332L273.046 84.9189C290.793 106.183 302.202 132.842 304.421 162.039L306.639 161.722Z" fill="#44B5BA"/>
<path fill-rule="evenodd" clip-rule="evenodd" d="M275.011 82.6284L275.331 83.0113C293.459 104.668 305.229 131.744 307.138 161.69L307.167 162.152L303.963 162.61L303.922 162.077C301.712 132.987 290.345 106.426 272.662 85.2394L272.342 84.8555L275.011 82.6284ZM273.75 84.9831C291.271 106.131 302.568 132.548 304.878 161.469L306.11 161.293C304.137 131.933 292.61 105.366 274.884 84.0365L273.75 84.9831Z" fill="#44B5BA"/>
<path d="M251.179 107.452H253.081L271.145 83.9672L269.56 82.063L249.911 107.77L251.179 107.452Z" fill="#44B5BA"/>
<path fill-rule="evenodd" clip-rule="evenodd" d="M269.544 81.2612L271.785 83.9548L253.327 107.952H251.241L248.646 108.602L269.544 81.2612ZM269.577 82.8645L251.166 106.952H252.834L270.505 83.9794L269.577 82.8645Z" fill="#44B5BA"/>
<path d="M90.5035 107.452H88.602L70.5378 83.9672L72.1224 82.063L92.088 107.77L90.5035 107.452Z" fill="#44B5BA"/>
<path fill-rule="evenodd" clip-rule="evenodd" d="M72.1358 81.2651L93.3067 108.524L90.4539 107.952H88.3558L69.8976 83.9549L72.1358 81.2651ZM71.1781 83.9795L88.8482 106.952H90.553L90.8693 107.016L72.109 82.8608L71.1781 83.9795Z" fill="#44B5BA"/>
<path d="M234.383 93.8067L234.066 96.9804L262.588 75.082L260.687 73.4951L234.383 93.8067Z" fill="#44B5BA"/>
<path fill-rule="evenodd" clip-rule="evenodd" d="M260.699 72.854L263.388 75.0982L233.453 98.0809L233.907 93.5426L260.699 72.854ZM234.859 94.0707L234.678 95.8798L261.788 75.0657L260.674 74.1362L234.859 94.0707Z" fill="#44B5BA"/>
<path d="M242.306 156.011H241.672C240.404 156.963 239.136 157.915 237.869 158.867L242.306 158.232L303.47 166.484V164.262L242.306 156.011Z" fill="#44B5BA"/>
<path fill-rule="evenodd" clip-rule="evenodd" d="M241.505 155.511H242.339L303.97 163.825V167.056L242.308 158.737L237.94 159.362L237.568 158.467L241.505 155.511ZM241.839 156.511L239.728 158.096L242.304 157.728L302.97 165.912V164.699L242.272 156.511H241.839Z" fill="#44B5BA"/>
<path d="M105.399 158.867C104.131 157.915 102.863 156.963 101.596 156.011L100.011 155.693L38.8465 163.628V165.849L100.011 157.915L105.399 158.867Z" fill="#44B5BA"/>
<path fill-rule="evenodd" clip-rule="evenodd" d="M100.028 155.188L101.805 155.543L105.699 158.468L105.312 159.36L99.9994 158.421L38.3465 166.419V163.189L100.028 155.188ZM39.3465 164.067V165.281L100.023 157.41L103.426 158.011L101.386 156.479L99.9936 156.2L39.3465 164.067Z" fill="#44B5BA"/>
<path d="M108.251 96.663L108.885 94.7588L81.313 73.4951L79.7284 75.3993L108.251 97.2977V96.663Z" fill="#44B5BA"/>
<path fill-rule="evenodd" clip-rule="evenodd" d="M81.2369 72.8047L109.471 94.5795L108.751 96.7438V98.3117L79.0115 75.479L81.2369 72.8047ZM81.3892 74.185L80.4454 75.3191L107.83 96.344L108.298 94.9376L81.3892 74.185Z" fill="#44B5BA"/>
<path d="M267.659 105.231C267.659 105.231 264.49 104.914 260.37 104.914C256.884 104.914 252.764 105.231 249.595 105.866C244.841 106.818 238.186 110.309 234.066 112.848C235.967 105.866 235.333 101.423 235.333 97.6141C235.333 91.2667 233.749 78.2546 229.629 70.6378C225.509 63.0209 222.974 61.1167 222.974 61.1167C222.974 61.1167 217.586 61.4341 208.079 64.6078C200.156 67.1467 190.965 75.7156 188.747 77.9372C180.507 71.2725 171.634 66.1946 171.634 66.1946C171.634 66.1946 162.76 71.2725 154.52 77.9372C152.302 75.7156 143.111 67.1467 135.188 64.6078C125.681 61.4341 120.293 61.1167 120.293 61.1167V61.4341C120.293 61.1167 120.293 61.1167 120.293 61.1167C120.293 61.1167 117.441 63.0209 113.638 70.6378C109.518 78.2546 107.934 91.2667 107.934 97.6141C107.934 101.105 107.3 105.548 109.201 112.848C105.082 110.309 98.1095 106.818 93.6726 105.866C90.5035 105.231 86.3836 104.914 82.8976 104.914C78.7777 104.914 75.6085 105.231 75.6085 105.231C75.6085 105.231 75.6085 126.495 82.8976 138.872C93.6726 156.327 110.786 166.483 119.977 168.705C125.047 169.974 131.385 170.609 137.724 170.609C141.21 170.609 144.379 170.291 147.865 169.974C147.865 169.022 147.865 168.387 148.182 167.753C145.013 168.387 141.527 168.387 137.724 168.387C132.019 168.387 125.681 167.753 120.293 166.483C112.054 164.579 94.9403 155.058 84.4821 137.92C80.0453 130.62 78.4607 120.147 77.8269 113.165C79.4115 115.387 80.9961 117.291 81.9468 118.56C84.4821 121.417 92.7219 128.399 100.328 132.842C108.885 137.92 121.878 139.507 127.583 139.824C133.287 139.824 138.991 141.728 147.865 145.854C150.717 147.124 154.52 149.98 158.006 152.836C158.64 152.519 159.274 151.884 160.225 151.567C156.422 148.393 152.302 145.219 148.816 143.633C140.576 139.824 134.238 137.603 127.583 137.603C125.998 137.603 124.413 137.603 122.512 137.285C122.195 136.65 121.561 136.016 121.244 135.381C109.201 115.387 109.518 106.5 109.518 100.47C109.518 99.8357 109.518 98.8836 109.518 98.2488C109.518 91.5841 111.103 79.2067 114.906 72.2246C115.857 70.6378 116.807 69.0509 117.441 68.0988C118.075 77.3025 121.561 94.123 135.822 103.644C154.52 116.021 159.274 125.86 159.274 125.86C159.274 125.86 162.443 133.159 164.662 138.872C165.295 141.094 166.246 144.902 166.88 149.345C167.514 149.345 168.464 149.028 169.098 149.028C168.464 144.585 167.514 140.459 166.88 137.92C164.662 132.207 161.492 124.908 161.492 124.908C161.492 124.908 157.056 115.387 139.308 103.009C139.942 101.423 145.013 89.3625 152.936 82.3804C159.908 76.3504 168.148 70.9551 171 69.3683C173.852 71.2725 182.092 76.3504 189.064 82.3804C196.67 89.3625 201.741 101.423 202.691 103.009C184.944 115.387 180.507 124.908 180.507 124.908C180.507 124.908 177.338 132.207 175.12 137.92C174.169 140.141 173.535 144.585 172.901 149.028C173.535 149.028 174.486 149.345 175.12 149.345C175.754 144.902 176.387 140.776 177.338 138.872C179.556 133.159 182.726 126.177 182.726 126.177C182.726 126.177 187.796 116.339 206.177 103.961C220.755 94.123 223.925 77.6199 224.558 68.4162C225.192 69.6856 226.143 70.9551 227.094 72.542C230.897 79.5241 232.481 91.9014 232.481 98.5662C232.481 99.2009 232.481 99.8357 232.481 100.788C232.798 106.818 232.798 116.021 220.755 135.698C220.438 136.333 219.805 136.968 219.488 137.603C217.586 137.92 216.002 137.92 214.417 137.92C207.762 137.92 201.424 140.141 193.184 143.95C189.698 145.537 185.261 149.028 181.141 152.201C181.775 152.519 182.409 153.154 183.043 153.471C186.846 150.297 190.649 147.441 193.818 145.854C202.691 141.728 208.396 140.141 214.1 139.824C219.805 139.824 232.798 138.237 241.355 132.842C248.644 128.399 256.884 121.417 259.736 118.56C260.687 117.608 262.271 115.387 263.856 113.165C263.222 120.147 261.637 130.938 257.201 137.92C246.742 155.375 229.629 164.579 221.389 166.483C216.002 167.753 209.98 168.387 203.959 168.387C199.839 168.387 195.719 168.07 192.233 167.435C192.233 168.07 192.55 169.022 192.55 169.974C196.353 170.609 200.156 170.926 203.959 170.926C210.614 170.926 216.952 169.974 221.706 169.022C231.214 166.8 248.327 156.645 258.785 139.189C267.976 126.495 267.659 105.231 267.659 105.231ZM119.977 136.016C119.977 136.016 119.977 136.333 119.977 136.016C113.955 135.381 106.983 133.477 102.229 130.62C94.9403 126.177 86.7005 119.513 84.4821 116.656C83.2145 115.069 80.6792 111.896 78.4608 109.039C78.4608 108.405 78.4607 107.77 78.1438 107.453C79.4115 107.453 80.9961 107.453 82.8976 107.453C87.0174 107.453 90.5035 107.77 93.0388 108.405C98.1095 109.357 106.666 114.117 110.152 116.339C112.054 121.417 114.906 127.764 119.977 136.016ZM152.619 79.8414C152.302 80.1588 152.302 80.1588 151.985 80.4762C144.379 87.4583 139.308 98.5662 138.041 101.423C121.878 90.632 120.293 70.3204 120.293 63.6557C122.195 63.973 127.899 64.9251 134.555 67.1467C141.844 69.3683 150.083 76.9851 152.619 79.8414ZM205.227 101.423C203.959 98.5662 198.888 87.4583 191.282 80.4762C190.965 80.1588 190.965 80.1588 190.649 79.8414V79.5241C193.184 76.9851 201.424 69.3683 208.713 66.8293C215.051 64.6078 220.755 63.6556 222.974 63.3383C222.974 70.3204 221.389 90.632 205.227 101.423ZM264.807 109.039C262.905 111.896 260.37 115.069 258.785 116.656C256.567 119.195 248.644 125.86 241.038 130.62C235.967 133.477 228.995 135.381 222.974 136.333C222.974 136.333 222.974 136.333 222.974 136.016C228.044 127.764 230.897 121.099 232.798 116.021C236.284 113.8 244.524 109.357 249.912 108.087C252.447 107.453 255.933 107.135 260.053 107.135C261.954 107.135 263.539 107.135 264.807 107.135C265.123 108.087 265.123 108.722 264.807 109.039Z" fill="#44B5BA"/>
<path fill-rule="evenodd" clip-rule="evenodd" d="M155.81 171C154.611 169.519 153.722 167.673 153.569 165.532C152.936 159.819 155.471 152.202 161.175 149.663L162.126 151.885C157.372 154.106 155.154 160.771 155.788 165.532C156.204 167.825 157.442 169.708 158.871 171H155.81ZM169.382 171C170.006 170.49 170.366 170.065 170.366 169.975L171.39 171H169.382Z" fill="#44B5BA"/>
<path fill-rule="evenodd" clip-rule="evenodd" d="M162.776 152.133L161.435 149L160.972 149.206C157.972 150.541 155.838 153.196 154.537 156.209C153.237 159.219 152.747 162.634 153.071 165.577C153.224 167.683 154.047 169.509 155.175 171H156.463C155.188 169.537 154.223 167.671 154.068 165.496L154.067 165.486L154.066 165.476C153.759 162.708 154.221 159.463 155.455 156.605C156.618 153.911 158.449 151.603 160.921 150.339L161.481 151.649C159.182 152.884 157.512 155.102 156.476 157.562C155.375 160.176 154.963 163.121 155.292 165.597L155.294 165.609L155.296 165.621C155.695 167.821 156.81 169.661 158.146 171H159.643C158.116 169.785 156.722 167.857 156.282 165.454C155.981 163.171 156.361 160.41 157.397 157.95C158.436 155.484 160.108 153.38 162.338 152.338L162.776 152.133ZM168.558 171H170.143C170.245 170.905 170.336 170.815 170.416 170.732L170.683 171H172.096L169.866 168.766V169.846C169.847 169.87 169.823 169.899 169.792 169.935C169.678 170.063 169.503 170.238 169.27 170.44C169.07 170.615 168.83 170.806 168.558 171Z" fill="#44B5BA"/>
<path fill-rule="evenodd" clip-rule="evenodd" d="M146.916 171H149.451C149.582 159.37 159.038 149.98 170.683 149.98C182.327 149.98 191.784 159.37 191.915 171H194.45C194.317 158.097 183.595 147.441 170.683 147.441C157.771 147.441 147.049 158.097 146.916 171Z" fill="#44B5BA"/>
<path fill-rule="evenodd" clip-rule="evenodd" d="M40.2971 160.651L27.5865 158.931L27.2606 171H28.2611L28.5561 160.071L39.2971 161.525V171H40.2971V160.651ZM37.0787 171H38.0787V162.553L29.8451 161.477L28.8614 171H29.8667L30.7342 162.602L37.0787 163.431V171Z" fill="#44B5BA"/>
<path fill-rule="evenodd" clip-rule="evenodd" d="M39.7971 171V161.087L28.0713 159.5L27.7609 171H29.3641L30.2897 162.039L37.5787 162.992V171H39.7971Z" fill="#44B5BA"/>
<path fill-rule="evenodd" clip-rule="evenodd" d="M22.6888 171C22.6872 170.975 22.6856 170.95 22.6838 170.925C22.6838 166.8 19.1978 163.309 15.0779 163.309C10.958 163.309 7.47192 166.8 7.47192 170.925C7.47192 170.95 7.47205 170.975 7.4723 171H9.6909C9.69052 170.975 9.69033 170.95 9.69033 170.925C9.69033 168.069 12.2256 165.53 15.0779 165.53C18.247 165.53 20.4654 168.069 20.4654 170.925C20.4654 170.95 20.4652 170.975 20.4649 171H22.6888Z" fill="#44B5BA"/>
<path fill-rule="evenodd" clip-rule="evenodd" d="M7.97192 170.925C7.97192 167.075 11.2348 163.809 15.0779 163.809C18.9209 163.809 22.1838 167.075 22.1838 170.925V170.943L22.1851 170.961C22.186 170.974 22.1869 170.987 22.1878 171H23.1897C23.1879 170.969 23.1859 170.938 23.1838 170.908C23.1738 166.514 19.4686 162.809 15.0779 162.809C10.6812 162.809 6.97192 166.524 6.97192 170.925C6.97192 170.95 6.97204 170.975 6.97228 171H7.97233C7.97206 170.975 7.97192 170.95 7.97192 170.925ZM20.9649 171C20.9653 170.975 20.9654 170.95 20.9654 170.925C20.9654 167.813 18.5429 165.03 15.0779 165.03C11.9488 165.03 9.19033 167.794 9.19033 170.925C9.19033 170.95 9.1905 170.975 9.19084 171H10.191C10.1905 170.975 10.1903 170.95 10.1903 170.925C10.1903 168.345 12.5025 166.03 15.0779 166.03C17.9512 166.03 19.9654 168.325 19.9654 170.925C19.9654 170.95 19.9652 170.975 19.9648 171H20.9649Z" fill="#44B5BA"/>
<path fill-rule="evenodd" clip-rule="evenodd" d="M12.8606 171H17.295C17.2958 170.976 17.2962 170.951 17.2962 170.927C17.2962 169.7 16.303 168.705 15.0778 168.705C13.8526 168.705 12.8594 169.7 12.8594 170.927C12.8594 170.951 12.8598 170.976 12.8606 171Z" fill="#44B5BA"/>
<path fill-rule="evenodd" clip-rule="evenodd" d="M13.3594 170.927C13.3594 169.975 14.1295 169.205 15.0778 169.205C16.0262 169.205 16.7962 169.975 16.7962 170.927C16.7962 170.951 16.7957 170.976 16.7947 171H17.7953C17.7959 170.976 17.7962 170.951 17.7962 170.927C17.7962 169.424 16.5798 168.205 15.0778 168.205C13.5758 168.205 12.3594 169.424 12.3594 170.927C12.3594 170.951 12.3598 170.976 12.3604 171H13.361C13.36 170.976 13.3594 170.951 13.3594 170.927Z" fill="#44B5BA"/>
<path fill-rule="evenodd" clip-rule="evenodd" d="M147.416 171C147.549 158.373 158.048 147.941 170.683 147.941C183.318 147.941 193.816 158.373 193.95 171H194.95C194.817 157.822 183.872 146.941 170.683 146.941C157.494 146.941 146.549 157.822 146.416 171H147.416ZM192.415 171C192.284 159.094 182.604 149.48 170.683 149.48C158.762 149.48 149.082 159.094 148.951 171H149.951C150.082 159.645 159.315 150.48 170.683 150.48C182.051 150.48 191.284 159.645 191.415 171H192.415Z" fill="#44B5BA"/>
<path fill-rule="evenodd" clip-rule="evenodd" d="M314.745 171V158.931L301.691 160.651L301.95 171H302.95L302.713 161.525L313.745 160.071V168.963L312.099 161.82L304.238 162.535V171H305.238V163.448L311.32 162.895L313.177 170.95L313.276 171H314.745Z" fill="#44B5BA"/>
<path fill-rule="evenodd" clip-rule="evenodd" d="M304.738 171V162.992L311.71 162.357L313.611 170.608L314.245 170.926V159.5L302.202 161.087L302.45 171H304.738Z" fill="#44B5BA"/>
<path fill-rule="evenodd" clip-rule="evenodd" d="M333.899 171C333.897 170.975 333.896 170.95 333.894 170.925C333.894 166.8 330.408 163.309 326.288 163.309C322.168 163.309 318.682 166.8 318.682 170.925C318.682 170.95 318.682 170.975 318.682 171H320.901C320.9 170.975 320.9 170.95 320.9 170.925C320.9 168.069 323.436 165.53 326.288 165.53C329.457 165.53 331.675 168.069 331.675 170.925C331.675 170.95 331.675 170.975 331.675 171H333.899Z" fill="#44B5BA"/>
<path fill-rule="evenodd" clip-rule="evenodd" d="M319.182 170.925C319.182 167.075 322.445 163.809 326.288 163.809C330.131 163.809 333.394 167.075 333.394 170.925V170.943L333.395 170.961C333.396 170.974 333.397 170.987 333.398 171H334.4C334.398 170.969 334.396 170.938 334.394 170.908C334.384 166.514 330.679 162.809 326.288 162.809C321.891 162.809 318.182 166.524 318.182 170.925C318.182 170.95 318.182 170.975 318.182 171H319.182C319.182 170.975 319.182 170.95 319.182 170.925ZM332.175 171C332.175 170.975 332.175 170.95 332.175 170.925C332.175 167.813 329.753 165.03 326.288 165.03C323.159 165.03 320.4 167.794 320.4 170.925C320.4 170.95 320.4 170.975 320.401 171H321.401C321.4 170.975 321.4 170.95 321.4 170.925C321.4 168.345 323.712 166.03 326.288 166.03C329.161 166.03 331.175 168.325 331.175 170.925C331.175 170.95 331.175 170.975 331.175 171H332.175Z" fill="#44B5BA"/>
<path fill-rule="evenodd" clip-rule="evenodd" d="M324.57 170.927C324.57 169.975 325.34 169.205 326.288 169.205C327.236 169.205 328.006 169.975 328.006 170.927C328.006 170.951 328.006 170.976 328.005 171H329.005C329.006 170.976 329.006 170.951 329.006 170.927C329.006 169.424 327.79 168.205 326.288 168.205C324.786 168.205 323.57 169.424 323.57 170.927C323.57 170.951 323.57 170.976 323.571 171H324.571C324.57 170.976 324.57 170.951 324.57 170.927Z" fill="#44B5BA"/>
<path fill-rule="evenodd" clip-rule="evenodd" d="M324.071 171H328.505C328.506 170.976 328.506 170.951 328.506 170.927C328.506 169.7 327.513 168.705 326.288 168.705C325.063 168.705 324.07 169.7 324.07 170.927C324.07 170.951 324.07 170.976 324.071 171Z" fill="#44B5BA"/>
<path fill-rule="evenodd" clip-rule="evenodd" d="M341.5 171C341.368 76.8537 265.042 0.5 171 0.5C76.9575 0.5 0.631804 76.8537 0.5 171H2.7184C2.85034 78.1231 78.2252 2.72158 171 2.72158C263.774 2.72158 339.149 78.1231 339.281 171H341.5Z" fill="#44B5BA"/>
<path fill-rule="evenodd" clip-rule="evenodd" d="M169.637 171H172.193C172.18 170.962 172.165 170.921 172.149 170.876C171.654 169.508 169.94 164.77 173.535 161.724C175.437 160.137 178.606 158.55 182.092 159.502C186.845 160.772 191.916 165.532 192.233 170.61H194.451C194.135 164.263 188.113 158.867 182.726 157.281C178.289 156.011 174.169 157.915 171.95 160.137C167.82 163.787 168.906 168.743 169.637 171Z" fill="#44B5BA"/>
<path fill-rule="evenodd" clip-rule="evenodd" d="M338.781 171C338.649 78.3985 263.498 3.22158 171 3.22158C78.502 3.22158 3.35034 78.3985 3.21841 171H2.2184C2.35034 77.8476 77.9484 2.22158 171 2.22158C264.051 2.22158 339.649 77.8476 339.781 171H338.781ZM0 171H1C1.1318 77.1292 77.2344 1 171 1C264.765 1 340.868 77.1292 341 171H342C341.868 76.5782 265.319 0 171 0C76.6807 0 0.131804 76.5782 0 171Z" fill="#44B5BA"/>
<path fill-rule="evenodd" clip-rule="evenodd" d="M314.879 171V170.927C314.879 91.585 250.545 27.1592 171.317 27.1592C92.1695 27.1592 27.5704 91.7694 27.4377 171H29.9729V170.927C29.9729 92.8545 93.3558 29.3808 171.317 29.3808C249.278 29.3808 312.661 92.8545 312.661 170.927V171H314.879Z" fill="#44B5BA"/>
<path fill-rule="evenodd" clip-rule="evenodd" d="M312.161 171V170.927C312.161 93.13 249.001 29.8808 171.317 29.8808C93.6326 29.8808 30.4729 93.13 30.4729 170.927V171H29.4729V170.927C29.4729 92.579 93.0789 28.8808 171.317 28.8808C249.555 28.8808 313.161 92.579 313.161 170.927V171H312.161ZM26.9377 171H27.9377C28.0704 92.0449 92.4463 27.6592 171.317 27.6592C250.269 27.6592 314.379 91.8605 314.379 170.927V171H315.379V170.927C315.379 91.3095 250.822 26.6592 171.317 26.6592C91.8927 26.6592 27.0704 91.4939 26.9377 171Z" fill="#44B5BA"/>
<path fill-rule="evenodd" clip-rule="evenodd" d="M120.793 60.658V60.1816L120.155 60.6076L119.793 60.5863V60.8688C119.704 60.9408 119.59 61.0378 119.452 61.1635C119.107 61.4773 118.616 61.9701 118.008 62.701C116.792 64.1618 115.109 66.5733 113.195 70.4071C111.1 74.2829 109.663 79.4969 108.749 84.5123C107.833 89.537 107.434 94.407 107.434 97.614C107.434 98.2523 107.412 98.928 107.388 99.6521V99.6523V99.6523C107.292 102.626 107.169 106.417 108.427 111.798C104.23 109.331 97.9409 106.27 93.7776 105.377L93.7708 105.375C90.5609 104.732 86.4067 104.413 82.8976 104.413C80.8252 104.413 78.9926 104.493 77.6778 104.573C77.0202 104.613 76.4917 104.653 76.1271 104.683C75.9447 104.698 75.8033 104.711 75.7071 104.719L75.5973 104.73L75.5689 104.732L75.5615 104.733L75.5588 104.733L75.1085 104.778V105.231H75.6085C75.1085 105.231 75.1085 105.232 75.1085 105.232L75.1085 105.235L75.1086 105.248L75.1088 105.295C75.109 105.337 75.1094 105.398 75.1103 105.478C75.1121 105.639 75.1157 105.876 75.1229 106.18C75.1372 106.79 75.1659 107.674 75.2231 108.773C75.3375 110.97 75.5663 114.028 76.024 117.476C76.9373 124.355 78.7695 132.848 82.4666 139.126L82.4721 139.135C93.3127 156.696 110.533 166.936 119.858 169.19C123.757 170.166 128.386 170.768 133.184 171H141.412C143.306 170.894 145.167 170.723 147.103 170.546C147.37 170.521 147.64 170.497 147.91 170.472L148.365 170.431V169.974C148.365 168.996 148.374 168.486 148.629 167.976L149.086 167.062L148.084 167.262C144.973 167.885 141.539 167.887 137.724 167.887C132.051 167.887 125.752 167.256 120.408 165.996L120.406 165.996C116.368 165.063 110.09 162.242 103.512 157.508C96.9398 152.779 90.0971 146.161 84.9089 137.659C80.902 131.067 79.2411 121.805 78.5041 114.932C79.1659 115.811 79.8044 116.623 80.3634 117.335L80.3637 117.335L80.3638 117.335C80.8218 117.918 81.2264 118.432 81.5466 118.86L81.5591 118.877L81.5729 118.892C84.1486 121.794 92.4308 128.807 100.074 133.273C104.419 135.851 109.866 137.531 114.921 138.607C119.981 139.685 124.682 140.163 127.555 140.323L127.569 140.324H127.583C133.17 140.324 138.789 142.186 147.654 146.307L147.662 146.311C150.444 147.549 154.198 150.363 157.689 153.223L157.94 153.428L158.23 153.283C158.5 153.148 158.778 152.957 159.038 152.778C159.119 152.723 159.198 152.668 159.274 152.617C159.618 152.388 159.97 152.179 160.383 152.041L161.233 151.757L160.545 151.183C156.746 148.012 152.579 144.797 149.025 143.178C140.773 139.364 134.352 137.102 127.583 137.102C126.065 137.102 124.584 137.102 122.832 136.83C122.669 136.555 122.471 136.29 122.292 136.052L122.278 136.033C122.034 135.707 121.826 135.427 121.692 135.158L121.683 135.14L121.673 135.123C115.668 125.154 112.76 117.979 111.349 112.563C110.01 107.422 110.014 103.848 110.018 100.921V100.921L110.018 100.915C110.018 100.765 110.018 100.617 110.018 100.47V98.2488C110.018 94.9491 110.411 90.2185 111.278 85.445C112.145 80.6683 113.479 75.8939 115.34 72.4727C115.946 71.462 116.547 70.459 117.065 69.6214C117.969 79.116 121.83 94.9034 135.545 104.06L135.546 104.061C144.86 110.227 150.689 115.752 154.184 119.724C155.932 121.71 157.097 123.308 157.822 124.405C158.185 124.953 158.437 125.376 158.598 125.66C158.679 125.802 158.736 125.908 158.773 125.979L158.798 126.026L158.813 126.056L158.82 126.07L158.955 126.383C159.046 126.593 159.179 126.9 159.344 127.287C159.676 128.06 160.141 129.149 160.675 130.418C161.741 132.949 163.082 136.187 164.187 139.031C164.816 141.24 165.757 145.015 166.385 149.416L166.446 149.845H166.88C167.247 149.845 167.684 149.758 168.056 149.683L168.087 149.677C168.5 149.594 168.842 149.528 169.098 149.528H169.675L169.593 148.957C168.956 144.49 168.001 140.346 167.365 137.799L167.357 137.768L167.346 137.739C166.234 134.876 164.885 131.618 163.815 129.077C163.28 127.807 162.814 126.715 162.482 125.94C162.316 125.553 162.183 125.245 162.092 125.034L161.952 124.71L161.951 124.709L161.946 124.697L161.492 124.908C161.946 124.697 161.945 124.695 161.945 124.695L161.944 124.693L161.941 124.686L161.929 124.662L161.91 124.624L161.884 124.572C161.845 124.494 161.786 124.381 161.705 124.234C161.544 123.94 161.296 123.51 160.943 122.958C160.238 121.853 159.115 120.258 157.437 118.277C154.122 114.364 148.639 108.947 139.922 102.829C140.419 101.633 141.765 98.5629 143.823 94.9663C146.148 90.901 149.363 86.1954 153.264 82.757C160.005 76.9275 167.937 71.6935 170.979 69.9543C171.383 70.2218 171.872 70.5395 172.431 70.9028C176.122 73.3014 182.874 77.6892 188.731 82.7536C192.475 86.1924 195.612 90.8979 197.939 94.9663C199.101 96.9978 200.057 98.8628 200.783 100.321C201.009 100.776 201.215 101.196 201.399 101.571L201.4 101.572L201.4 101.573C201.658 102.099 201.873 102.536 202.038 102.856C193.344 108.963 187.873 114.369 184.563 118.277C182.884 120.258 181.762 121.853 181.056 122.958C180.704 123.51 180.455 123.94 180.294 124.234C180.213 124.381 180.155 124.494 180.115 124.572C180.096 124.611 180.081 124.641 180.071 124.662L180.059 124.686L180.056 124.693L180.055 124.695L180.054 124.696L180.048 124.709L180.048 124.71L179.908 125.034C179.817 125.245 179.684 125.553 179.518 125.94C179.186 126.715 178.72 127.807 178.185 129.077C177.115 131.616 175.768 134.87 174.657 137.731C174.159 138.898 173.756 140.609 173.4 142.55C173.042 144.504 172.723 146.734 172.407 148.95L172.406 148.957L172.325 149.528H172.901C173.158 149.528 173.499 149.594 173.912 149.677L173.943 149.683L173.943 149.683C174.316 149.758 174.753 149.845 175.12 149.845H175.553L175.615 149.416C175.932 147.193 176.247 145.063 176.601 143.252C176.957 141.428 177.343 139.981 177.785 139.095L177.796 139.075L177.804 139.053C178.91 136.206 180.254 133.039 181.322 130.582C181.856 129.354 182.321 128.304 182.652 127.561C182.818 127.19 182.95 126.895 183.041 126.694L183.145 126.463L183.175 126.397L183.182 126.384C183.191 126.368 183.205 126.341 183.224 126.306C183.264 126.235 183.324 126.128 183.409 125.986C183.578 125.702 183.843 125.278 184.218 124.729C184.969 123.63 186.164 122.031 187.932 120.043C191.469 116.069 197.3 110.542 206.457 104.376C220.409 94.9602 224.029 79.54 224.925 70.0638C225.043 70.2518 225.164 70.4407 225.287 70.6314C225.381 70.7762 225.476 70.922 225.571 71.0693C225.925 71.6124 226.291 72.1763 226.66 72.7901C228.521 76.2113 229.854 80.9857 230.722 85.7624C231.588 90.5359 231.981 95.2664 231.981 98.5661V100.801L231.982 100.814C232.139 103.801 232.217 107.552 230.77 112.997C229.32 118.452 226.333 125.627 220.329 135.437L220.318 135.456L220.308 135.475C220.174 135.744 219.966 136.024 219.721 136.351L219.707 136.37C219.529 136.607 219.331 136.872 219.167 137.148C217.416 137.419 215.934 137.42 214.417 137.42C207.648 137.42 201.226 139.682 192.975 143.495C189.638 145.015 185.472 148.229 181.584 151.228L181.579 151.232C181.33 151.424 181.082 151.616 180.836 151.805L180.205 152.292L180.917 152.648C181.186 152.783 181.465 152.991 181.792 153.236L181.81 153.25C182.114 153.478 182.461 153.739 182.819 153.918L183.111 154.065L183.363 153.855C187.16 150.686 190.923 147.864 194.035 146.304C202.867 142.198 208.503 140.638 214.114 140.324C217.005 140.323 221.707 139.922 226.762 138.845C231.82 137.768 237.27 136.008 241.618 133.267C248.944 128.801 257.213 121.794 260.09 118.914C260.849 118.153 261.979 116.637 263.174 114.977C262.435 121.893 260.772 131.367 256.778 137.652L256.772 137.663C246.387 154.996 229.391 164.121 221.277 165.996L221.275 165.996C215.93 167.256 209.947 167.887 203.959 167.887C199.862 167.887 195.773 167.571 192.323 166.943L191.733 166.836V167.435C191.733 167.769 191.806 168.168 191.875 168.541L191.9 168.675C191.979 169.111 192.05 169.548 192.05 169.974V170.398L192.468 170.467C196.297 171.106 200.128 171.426 203.959 171.426C210.659 171.426 217.032 170.468 221.804 169.512L221.812 169.511L221.82 169.509C231.46 167.256 248.676 157.022 259.203 139.465C263.859 133.023 266.09 124.449 267.162 117.526C267.7 114.054 267.949 110.982 268.064 108.778C268.121 107.675 268.145 106.789 268.154 106.177C268.159 105.871 268.16 105.634 268.16 105.473C268.16 105.392 268.16 105.33 268.159 105.288L268.159 105.241L268.159 105.228L268.159 105.225L268.159 105.223L268.152 104.778L267.708 104.733L267.698 104.732L267.67 104.73L267.56 104.719C267.464 104.711 267.323 104.698 267.14 104.683C266.776 104.653 266.247 104.613 265.589 104.573C264.275 104.493 262.442 104.413 260.37 104.413C256.861 104.413 252.706 104.732 249.496 105.375C245.042 106.268 239.005 109.324 234.855 111.786C236.091 106.675 235.976 102.942 235.88 99.8392C235.856 99.0618 235.833 98.324 235.833 97.614C235.833 94.407 235.434 89.537 234.518 84.5123C233.603 79.4938 232.166 74.2764 230.069 70.3998C227.997 66.5694 226.317 64.163 225.146 62.7075C224.561 61.9796 224.102 61.4891 223.785 61.177C223.627 61.0209 223.504 60.9095 223.418 60.8352C223.375 60.7981 223.341 60.7703 223.317 60.7509C223.305 60.7412 223.296 60.7335 223.288 60.7279L223.279 60.7209L223.276 60.7185L223.275 60.7172L223.127 60.6067L222.944 60.6176L222.942 60.6176L222.939 60.6179L222.925 60.6188L222.874 60.6224C222.83 60.6256 222.765 60.6308 222.679 60.6385C222.508 60.6538 222.255 60.6792 221.923 60.7195C221.259 60.8001 220.278 60.9406 218.999 61.1806C216.443 61.6607 212.698 62.5388 207.923 64.1325C203.878 65.4294 199.546 68.2488 195.969 70.9949C192.685 73.5166 190.002 76.0043 188.713 77.2676C184.683 74.0365 180.538 71.1959 177.372 69.1468C175.743 68.0923 174.372 67.2466 173.407 66.6641C172.925 66.3729 172.545 66.1474 172.284 65.9945C172.154 65.9181 172.054 65.8598 171.986 65.8206L171.909 65.776L171.884 65.7617L171.882 65.7607L171.634 65.6185L171.385 65.7609L171.383 65.7617L171.358 65.776L171.281 65.8206C171.214 65.8598 171.113 65.9181 170.983 65.9945C170.723 66.1474 170.342 66.3729 169.86 66.6641C168.895 67.2466 167.524 68.0923 165.895 69.1468C162.729 71.1959 158.584 74.0365 154.555 77.2676C153.265 76.0043 150.582 73.5166 147.298 70.9949C143.721 68.2488 139.389 65.4293 135.344 64.1325C130.569 62.5388 126.824 61.6607 124.268 61.1806C122.989 60.9406 122.008 60.8001 121.344 60.7195C121.126 60.693 120.942 60.673 120.793 60.658ZM171.634 66.1945C171.882 65.7606 171.882 65.7606 171.882 65.7607L171.634 66.1945ZM171.385 65.7609C171.385 65.7608 171.385 65.7606 171.634 66.1945L171.385 65.7609ZM222.974 61.1166C223.274 60.7168 223.274 60.717 223.275 60.7172L222.974 61.1166ZM222.944 60.6176C222.944 60.6175 222.944 60.6175 222.974 61.1166L222.944 60.6176ZM267.659 105.231L267.708 104.733C267.708 104.733 267.709 104.733 267.659 105.231ZM180.149 124.752L180.048 124.709C180.048 124.709 180.049 124.709 180.149 124.752ZM76.1226 106.157C76.1183 105.975 76.1154 105.818 76.1133 105.688L76.2091 105.68C76.5674 105.65 77.0887 105.611 77.7384 105.571C79.0381 105.492 80.85 105.413 82.8976 105.413C86.3594 105.413 90.4433 105.729 93.5713 106.355C97.9226 107.29 104.833 110.743 108.939 113.273L109.999 113.927L109.685 112.722C108.159 106.861 108.286 102.889 108.388 99.7103C108.412 98.9736 108.434 98.2794 108.434 97.614C108.434 94.4737 108.827 89.6639 109.733 84.6916C110.64 79.7129 112.055 74.6158 114.078 70.8756L114.082 70.8684L114.086 70.861C115.972 67.0822 117.616 64.7353 118.776 63.3407C119.357 62.6434 119.816 62.1842 120.125 61.9029C120.261 61.779 120.368 61.6896 120.443 61.6296L120.499 61.6345C120.66 61.6489 120.902 61.6731 121.224 61.7122C121.867 61.7902 122.827 61.9275 124.083 62.1635C126.597 62.6354 130.299 63.5026 135.03 65.082L135.036 65.0838C138.913 66.3263 143.136 69.0602 146.689 71.788C150.233 74.5093 153.069 77.1916 154.166 78.2905L154.485 78.6091L154.835 78.3259C158.936 75.0084 163.199 72.0832 166.439 69.9863C168.058 68.9383 169.42 68.098 170.377 67.5201C170.855 67.2312 171.232 67.0078 171.489 66.857L171.634 66.7725L171.778 66.857C172.035 67.0078 172.412 67.2312 172.89 67.5201C173.847 68.098 175.21 68.9383 176.829 69.9863C180.068 72.0832 184.331 75.0084 188.433 78.3259L188.783 78.6091L189.101 78.2905C190.198 77.1916 193.034 74.5093 196.578 71.788C200.131 69.0602 204.354 66.3263 208.231 65.0838L208.237 65.082C212.969 63.5025 216.67 62.6354 219.184 62.1635C220.441 61.9275 221.401 61.7902 222.044 61.7122C222.365 61.6731 222.608 61.6489 222.768 61.6345L222.809 61.6309C222.876 61.6908 222.968 61.7757 223.083 61.8894C223.371 62.1724 223.804 62.634 224.367 63.3342C225.494 64.735 227.141 67.0892 229.189 70.8756C231.212 74.6158 232.627 79.7129 233.534 84.6916C234.441 89.6639 234.833 94.4737 234.833 97.614C234.833 98.354 234.857 99.112 234.881 99.9026C234.982 103.233 235.102 107.141 233.583 112.716L233.251 113.937L234.328 113.273C238.443 110.738 245.033 107.289 249.693 106.356C252.821 105.729 256.907 105.413 260.37 105.413C262.417 105.413 264.229 105.492 265.529 105.571C266.179 105.611 266.7 105.65 267.058 105.68L267.16 105.688C267.159 105.819 267.157 105.978 267.154 106.162C267.145 106.762 267.122 107.637 267.065 108.726C266.952 110.905 266.706 113.942 266.174 117.373C265.109 124.25 262.906 132.645 258.38 138.896L258.367 138.914L258.356 138.932C247.968 156.27 230.974 166.34 221.6 168.533C216.866 169.481 210.566 170.426 203.959 170.426C200.317 170.426 196.675 170.133 193.032 169.546C193.003 169.172 192.941 168.813 192.883 168.496L192.862 168.376C192.84 168.256 192.819 168.145 192.802 168.042C196.177 168.606 200.071 168.887 203.959 168.887C210.013 168.887 216.073 168.249 221.503 166.97C229.868 165.036 247.095 155.755 257.626 138.182C262.132 131.087 263.72 120.187 264.354 113.21L264.521 111.372L263.449 112.875C261.849 115.118 260.295 117.292 259.382 118.207C256.554 121.039 248.346 127.995 241.095 132.415L241.088 132.419C236.88 135.073 231.556 136.802 226.554 137.867C221.555 138.931 216.916 139.324 214.1 139.324H214.086L214.072 139.325C208.28 139.647 202.511 141.261 193.607 145.401L193.6 145.404L193.594 145.407C190.445 146.984 186.708 149.776 182.99 152.864C182.804 152.745 182.608 152.599 182.392 152.436L182.373 152.422C182.26 152.337 182.14 152.247 182.016 152.158L182.151 152.054C186.083 149.021 190.164 145.874 193.391 144.405L193.394 144.404C201.621 140.601 207.876 138.42 214.417 138.42H214.428C216.009 138.42 217.628 138.42 219.57 138.096L219.821 138.054L219.935 137.826C220.07 137.557 220.277 137.277 220.522 136.95L220.536 136.931L220.536 136.931C220.759 136.633 221.014 136.293 221.193 135.942C227.224 126.084 230.256 118.824 231.736 113.254C233.218 107.678 233.141 103.815 232.981 100.775V98.5661C232.981 95.2011 232.582 90.4106 231.706 85.5837C230.83 80.7642 229.472 75.8631 227.533 72.3028L227.528 72.2937L227.523 72.2849C227.142 71.6504 226.761 71.064 226.405 70.5166C226.31 70.3713 226.218 70.2287 226.127 70.0887C225.692 69.4154 225.309 68.8007 225.006 68.1928L224.186 66.5503L224.06 68.3818C223.429 77.5408 220.279 93.8411 205.898 103.547C196.674 109.758 190.779 115.339 187.185 119.378C185.388 121.398 184.167 123.031 183.392 124.164C183.005 124.731 182.73 125.172 182.55 125.475C182.46 125.626 182.394 125.742 182.35 125.821C182.328 125.861 182.311 125.892 182.3 125.913L182.287 125.938L182.282 125.947L182.281 125.948L182.275 125.959L182.27 125.971L182.27 125.972L182.234 126.051L182.129 126.283C182.038 126.486 181.905 126.781 181.739 127.154C181.407 127.899 180.941 128.951 180.405 130.183C179.337 132.639 177.991 135.81 176.88 138.67C176.377 139.689 175.974 141.247 175.619 143.061C175.285 144.77 174.987 146.751 174.692 148.805C174.518 148.778 174.323 148.739 174.109 148.696L174.078 148.69C173.886 148.652 173.678 148.61 173.471 148.578C173.763 146.531 174.057 144.512 174.383 142.731C174.74 140.789 175.128 139.171 175.579 138.117L175.583 138.109L175.586 138.101C176.692 135.251 178.037 132.003 179.106 129.466C179.64 128.197 180.105 127.107 180.437 126.335C180.603 125.948 180.735 125.641 180.826 125.431L180.957 125.128L180.962 125.116L180.964 125.112L180.97 125.099L180.977 125.086C180.984 125.07 180.994 125.049 181.007 125.024C181.042 124.956 181.096 124.852 181.171 124.715C181.322 124.44 181.559 124.029 181.899 123.496C182.58 122.429 183.676 120.87 185.326 118.923C188.624 115.03 194.137 109.585 202.977 103.419L203.36 103.153L203.12 102.752C202.971 102.503 202.71 101.971 202.334 101.204L202.333 101.202C202.144 100.817 201.926 100.373 201.678 99.8757C200.948 98.4083 199.983 96.5244 198.807 94.4698C196.461 90.3679 193.262 85.5549 189.402 82.012L189.397 82.007L189.391 82.0022C183.474 76.8844 176.645 72.4479 172.962 70.0547L172.962 70.0545C172.286 69.6156 171.716 69.2454 171.277 68.9524L171.024 68.7829L170.757 68.9313C167.874 70.5349 159.607 75.9498 152.609 82.0022L152.605 82.0052C148.584 85.5488 145.303 90.3634 142.955 94.4698C140.603 98.5815 139.167 102.015 138.844 102.824L138.697 103.192L139.022 103.419C147.862 109.585 153.376 115.03 156.674 118.923C158.323 120.87 159.419 122.429 160.1 123.496C160.441 124.029 160.678 124.44 160.829 124.715C160.904 124.852 160.958 124.956 160.992 125.024C161.003 125.046 161.013 125.064 161.02 125.079C161.024 125.087 161.027 125.093 161.029 125.099L161.036 125.112L161.038 125.116L161.043 125.128L161.174 125.431C161.265 125.641 161.397 125.948 161.563 126.335C161.894 127.107 162.359 128.197 162.893 129.466C163.959 131.994 165.298 135.229 166.402 138.071C167.009 140.505 167.902 144.376 168.528 148.578C168.321 148.61 168.113 148.652 167.922 148.69L167.922 148.69L167.891 148.696C167.676 148.739 167.481 148.778 167.306 148.805C166.67 144.536 165.758 140.894 165.142 138.735L165.136 138.713L165.128 138.691C164.016 135.828 162.667 132.57 161.597 130.03C161.061 128.759 160.595 127.667 160.263 126.893C160.097 126.505 159.965 126.198 159.874 125.986L159.733 125.662L159.733 125.661L159.729 125.651L159.724 125.642L159.274 125.86C159.724 125.642 159.724 125.641 159.723 125.641L159.722 125.639L159.719 125.631L159.706 125.606C159.696 125.585 159.68 125.554 159.659 125.514C159.617 125.434 159.554 125.317 159.468 125.166C159.296 124.863 159.031 124.421 158.656 123.853C157.906 122.719 156.713 121.084 154.935 119.063C151.379 115.022 145.483 109.439 136.099 103.228C122.037 93.8389 118.571 77.222 117.94 68.0644L117.839 66.5988L117.025 67.8217C116.385 68.7838 115.429 70.3779 114.484 71.9557L114.484 71.956L114.472 71.9764L114.467 71.9854C112.528 75.5457 111.169 80.4468 110.294 85.2663C109.418 90.0932 109.018 94.8837 109.018 98.2488V100.47C109.018 100.62 109.018 100.771 109.018 100.924C109.014 103.868 109.009 107.548 110.381 112.815C111.822 118.345 114.774 125.605 120.806 135.623C120.985 135.974 121.24 136.315 121.464 136.614L121.478 136.633C121.722 136.959 121.93 137.239 122.065 137.508L122.178 137.736L122.43 137.778C124.372 138.102 125.991 138.102 127.572 138.102H127.583C134.123 138.102 140.378 140.283 148.606 144.086L148.609 144.088C151.841 145.559 155.661 148.441 159.286 151.437C159.08 151.55 158.892 151.67 158.719 151.786C158.611 151.857 158.513 151.925 158.422 151.988C158.289 152.079 158.171 152.16 158.057 152.232C154.648 149.452 150.92 146.667 148.072 145.399C139.199 141.274 133.412 139.327 127.596 139.324C124.764 139.166 120.122 138.692 115.129 137.629C110.122 136.563 104.794 134.911 100.583 132.412L100.58 132.41C93.0257 127.997 84.8452 121.064 82.3344 118.244C81.9901 117.785 81.5765 117.259 81.1163 116.674L81.1161 116.673C80.2669 115.593 79.2588 114.312 78.234 112.875L77.1621 111.372L77.329 113.21C77.9632 120.197 79.5535 130.774 84.0553 138.18C89.3254 146.816 96.2684 153.528 102.928 158.32C109.58 163.107 115.978 165.999 120.18 166.97C125.611 168.249 131.988 168.887 137.724 168.887H137.757H137.757C141.213 168.887 144.459 168.887 147.451 168.394C147.386 168.75 147.37 169.12 147.366 169.518L147.019 169.549L147.018 169.549C143.84 169.841 140.916 170.109 137.724 170.109C131.414 170.109 125.118 169.476 120.098 168.22L120.094 168.219C111.038 166.03 94.035 155.959 83.3258 138.614C79.7356 132.515 77.9241 124.189 77.0153 117.344C76.5619 113.929 76.3351 110.898 76.2217 108.721C76.1651 107.632 76.1368 106.758 76.1226 106.157ZM182.294 125.981L182.27 125.971C182.27 125.971 182.27 125.971 182.294 125.981ZM223.474 63.3382V62.7616L222.903 62.8433C220.668 63.1631 214.928 64.1209 208.548 66.3572C204.827 67.6535 200.894 70.2316 197.592 72.7809C194.284 75.3358 191.574 77.8898 190.295 79.1707L190.149 79.3171V80.0483L190.535 80.4353L190.537 80.4373L190.539 80.4393L190.541 80.4413L190.542 80.4423L190.543 80.4433L190.574 80.4746L190.575 80.4755L190.576 80.4765L190.578 80.4784L190.604 80.5046L190.606 80.5065L190.607 80.5074L190.608 80.5083L190.609 80.5093L190.611 80.5111L190.612 80.5121L190.936 80.8371L190.944 80.8445C198.465 87.7484 203.501 98.7659 204.77 101.625L205.01 102.168L205.504 101.838C213.705 96.3631 218.196 88.4789 220.636 81.1093C223.075 73.7421 223.474 66.8611 223.474 63.3382ZM208.878 67.3011C214.685 65.2658 219.959 64.3027 222.47 63.9183C222.426 67.519 221.953 73.9483 219.686 80.795C217.343 87.8747 213.091 95.3738 205.439 100.673C203.847 97.1446 198.891 86.7862 191.628 80.1151L191.396 79.8823L191.395 79.8812L191.394 79.8802L191.393 79.8792L191.392 79.8782L191.39 79.8762L191.389 79.8752L191.388 79.8742L191.375 79.8613L191.373 79.8593L191.372 79.8584L191.357 79.843L191.356 79.842L191.355 79.8411L191.353 79.8392L191.332 79.8185L191.327 79.8129L191.325 79.811L191.324 79.8101L191.323 79.8092L191.322 79.8082L191.321 79.8073L191.32 79.8064L191.319 79.8055L191.23 79.7162L191.228 79.7141L191.197 79.6833C192.523 78.3718 195.096 75.9717 198.204 73.5724C201.478 71.0439 205.31 68.5439 208.878 67.3011ZM120.376 63.1624L119.793 63.0652V63.6556C119.793 67.0209 120.193 73.8225 122.632 81.1498C125.071 88.4792 129.562 96.3632 137.763 101.838L138.257 102.168L138.498 101.625C139.767 98.7659 144.802 87.7484 152.323 80.8445L152.331 80.8371L152.395 80.7735L152.396 80.7718L152.398 80.7702L152.49 80.6776L152.492 80.6763L152.664 80.5037L152.665 80.5028L152.669 80.499L152.671 80.4972L152.689 80.4784L152.708 80.4592L152.724 80.4433L152.725 80.4423L152.726 80.4413L152.728 80.4393L152.937 80.2305L152.939 80.2282M120.376 63.1624C122.284 63.4809 128.017 64.4378 134.707 66.6703L120.376 63.1624ZM134.707 66.6703C138.436 67.8083 142.372 70.3099 145.675 72.8602L134.707 66.6703ZM145.675 72.8602C148.985 75.4164 151.702 78.0558 152.993 79.5095L145.675 72.8602ZM152.993 79.5095L153.305 79.8616L152.993 79.5095ZM153.305 79.8616L152.956 80.2112L153.305 79.8616ZM152.956 80.2112L152.953 80.2141L152.956 80.2112ZM152.953 80.2141L152.951 80.2165L152.953 80.2141ZM152.951 80.2165L152.946 80.2215L152.951 80.2165ZM123.58 80.8339C121.322 74.0483 120.844 67.713 120.798 64.2474C123.112 64.6415 128.362 65.6067 134.396 67.6211L134.409 67.6249C137.967 68.7094 141.792 71.1256 145.064 73.6517C148.075 75.9772 150.581 78.367 151.929 79.8248L151.895 79.8584L151.893 79.8603L151.891 79.8623L151.879 79.8742L151.877 79.8762L151.875 79.8782L151.667 80.0871L151.663 80.0905L151.639 80.1151C144.376 86.7862 139.421 97.1446 137.828 100.673C130.176 95.3737 125.924 87.8751 123.58 80.8339ZM250.033 108.572C252.512 107.952 255.951 107.635 260.053 107.635H264.435C264.511 107.921 264.544 108.149 264.544 108.325C264.544 108.566 264.484 108.654 264.453 108.686L264.418 108.721L264.39 108.762C262.501 111.6 259.986 114.746 258.431 116.303L258.42 116.315L258.409 116.327C256.235 118.815 248.362 125.445 240.782 130.19C236.022 132.869 229.534 134.711 223.754 135.698C228.573 127.764 231.343 121.315 233.207 116.354C234.948 115.255 237.791 113.645 240.861 112.147C244.022 110.604 247.388 109.195 250.026 108.574L250.033 108.572ZM222.548 135.754L222.474 135.874V136.333H222.974L223.052 136.827C229.103 135.87 236.14 133.953 241.283 131.056L241.293 131.05L241.303 131.044C248.92 126.277 256.874 119.596 259.151 116.998C260.759 115.384 263.293 112.21 265.199 109.352C265.454 109.071 265.544 108.701 265.544 108.325C265.544 107.932 265.448 107.478 265.281 106.977L265.167 106.635H260.053C255.916 106.635 252.385 106.953 249.793 107.601C247.044 108.25 243.599 109.697 240.422 111.248C237.238 112.802 234.29 114.478 232.529 115.6L232.389 115.69L232.33 115.846C230.437 120.901 227.598 127.535 222.548 135.754ZM82.8976 106.952H76.9379L77.79 107.806C77.8333 107.849 77.8916 107.955 77.9261 108.197C77.9598 108.433 77.9608 108.713 77.9608 109.039V109.211L78.0659 109.346C80.2854 112.204 82.8211 115.378 84.0893 116.965C85.2403 118.446 87.8973 120.858 91.1434 123.435C94.4047 126.024 98.3038 128.813 101.969 131.047L101.972 131.049C106.807 133.954 113.857 135.873 119.924 136.513L119.962 136.157L120.477 136.157V135.566L120.274 135.544C115.301 127.423 112.495 121.169 110.62 116.163L110.562 116.007L110.421 115.917C108.663 114.797 105.636 113.042 102.411 111.447C99.2041 109.861 95.7518 108.408 93.1458 107.916C90.5551 107.269 87.0283 106.952 82.8976 106.952ZM109.743 116.671C111.586 121.569 114.31 127.629 119.016 135.401C113.288 134.674 106.898 132.842 102.488 130.192C98.8645 127.984 95 125.219 91.7651 122.652C88.5164 120.073 85.9455 117.725 84.8771 116.349L84.8728 116.344L84.8727 116.344C83.6248 114.782 81.1511 111.685 78.9606 108.868C78.9596 108.604 78.9535 108.318 78.9161 108.056C78.9113 108.022 78.9058 107.988 78.8995 107.952H82.8976C86.9989 107.952 90.4388 108.269 92.9174 108.89L92.9319 108.893L92.9466 108.896C95.4095 109.358 98.7639 110.759 101.968 112.344C105.076 113.881 107.996 115.567 109.743 116.671Z" fill="#44B5BA"/>
</svg>
