<svg width="42" height="42" viewBox="0 0 42 42" fill="none" xmlns="http://www.w3.org/2000/svg">
<path d="M21 6.81152C13.1765 6.81152 6.81155 13.1764 6.81155 21C6.81155 28.8235 13.1764 35.1884 21 35.1884C28.8235 35.1884 35.1884 28.8235 35.1884 21C35.1884 13.1764 28.8235 6.81152 21 6.81152ZM32.3527 21.5655C32.2245 24.1668 31.1194 26.6339 29.2817 28.4794C29.2747 28.4866 29.2675 28.4937 29.2605 28.5008C26.0624 31.6989 20.859 31.6988 17.6608 28.5008C15.2125 26.0524 15.2125 22.0686 17.6608 19.6202C19.5097 17.7715 22.5177 17.7716 24.3663 19.6202C25.7353 20.9891 25.7353 23.2165 24.3663 24.5854C23.4616 25.49 22.036 25.564 21.0462 24.807C20.6657 24.5159 20.3034 23.9028 20.2851 23.4242C20.267 22.9483 20.4384 22.4972 20.7639 22.156C21.2733 21.6221 21.354 20.7923 20.8805 20.2262C20.3412 19.5812 19.379 19.5495 18.7978 20.1307C17.9363 20.9921 17.4619 22.1374 17.4619 23.3557C17.4619 24.574 17.9363 25.7192 18.7978 26.5807C20.8834 28.6661 24.2764 28.666 26.3616 26.5807C28.8308 24.1116 28.8307 20.094 26.3616 17.6249C23.4127 14.6761 18.6144 14.676 15.6656 17.6249C12.117 21.1735 12.117 26.9475 15.6656 30.496C16.0912 30.9214 16.5434 31.3042 17.0165 31.6454C12.6023 29.9882 9.48324 25.6606 9.6391 20.6401C9.82656 14.5998 14.786 9.7241 20.8285 9.63456C27.1743 9.5405 32.3667 14.6752 32.3667 20.9999C32.3666 21.1896 32.362 21.3782 32.3527 21.5655Z" fill="#CCEDE3"/>
<path d="M21 6.06896C21.7793 6.06896 22.4109 5.43725 22.4109 4.65805V1.4109C22.4109 0.631709 21.7793 0 21 0C20.2208 0 19.5891 0.631709 19.5891 1.4109V4.65805C19.5891 5.43734 20.2208 6.06896 21 6.06896Z" fill="#CCEDE3"/>
<path d="M21 35.9309C20.2208 35.9309 19.5891 36.5626 19.5891 37.3418V40.589C19.5891 41.3682 20.2208 41.9999 21 41.9999C21.7793 41.9999 22.4109 41.3682 22.4109 40.589V37.3418C22.4108 36.5626 21.7793 35.9309 21 35.9309Z" fill="#CCEDE3"/>
<path d="M11.6072 7.55323C11.8685 8.00594 12.3428 8.25887 12.8304 8.25887C13.0697 8.25887 13.3123 8.19792 13.5345 8.06962C14.2093 7.68002 14.4405 6.81711 14.0509 6.14232L12.4273 3.3302C12.0377 2.65541 11.1748 2.42412 10.5 2.81381C9.82525 3.20341 9.59405 4.06632 9.98364 4.74111L11.6072 7.55323Z" fill="#CCEDE3"/>
<path d="M30.3929 34.4469C30.0032 33.772 29.1403 33.5409 28.4656 33.9305C27.7907 34.3201 27.5595 35.183 27.9492 35.8578L29.5728 38.6699C29.8341 39.1226 30.3083 39.3755 30.7959 39.3755C31.0353 39.3755 31.2779 39.3146 31.5 39.1863C32.1748 38.7967 32.4061 37.9338 32.0164 37.259L30.3929 34.4469Z" fill="#CCEDE3"/>
<path d="M3.32995 12.4275L6.14207 14.0511C6.36424 14.1794 6.60682 14.2403 6.8462 14.2403C7.33381 14.2403 7.80816 13.9873 8.06936 13.5347C8.45896 12.8599 8.22776 11.997 7.55297 11.6074L4.74085 9.98379C4.06597 9.59401 3.20306 9.8253 2.81356 10.5002C2.42386 11.175 2.65506 12.0379 3.32995 12.4275Z" fill="#CCEDE3"/>
<path d="M38.6702 29.573L35.858 27.9494C35.1832 27.5595 34.3203 27.7909 33.9307 28.4658C33.5411 29.1406 33.7723 30.0035 34.4471 30.3931L37.2593 32.0167C37.4814 32.145 37.724 32.2059 37.9634 32.2059C38.451 32.2059 38.9253 31.9529 39.1866 31.5003C39.5762 30.8255 39.345 29.9626 38.6702 29.573Z" fill="#CCEDE3"/>
<path d="M6.06896 21C6.06896 20.2208 5.43725 19.5891 4.65805 19.5891H1.4109C0.631709 19.5891 0 20.2208 0 21C0 21.7792 0.631709 22.4109 1.4109 22.4109H4.65805C5.43725 22.4109 6.06896 21.7792 6.06896 21Z" fill="#CCEDE3"/>
<path d="M40.5891 19.5891H37.342C36.5628 19.5891 35.931 20.2208 35.931 21C35.931 21.7792 36.5628 22.4109 37.342 22.4109H40.5891C41.3683 22.4109 42 21.7792 42 21C42 20.2208 41.3683 19.5891 40.5891 19.5891Z" fill="#CCEDE3"/>
<path d="M6.14204 27.9493L3.32992 29.5729C2.65513 29.9625 2.42393 30.8254 2.81352 31.5002C3.07482 31.9529 3.54908 32.2058 4.03668 32.2058C4.27597 32.2058 4.51865 32.1449 4.74082 32.0166L7.55294 30.393C8.22773 30.0034 8.45893 29.1405 8.06933 28.4657C7.67973 27.7908 6.81692 27.5596 6.14204 27.9493Z" fill="#CCEDE3"/>
<path d="M35.1538 14.2402C35.3932 14.2402 35.6358 14.1792 35.8579 14.0509L38.6701 12.4274C39.3449 12.0378 39.5761 11.1748 39.1864 10.5001C38.7968 9.82518 37.9339 9.59416 37.2591 9.98367L34.447 11.6072C33.7721 11.9968 33.5409 12.8598 33.9306 13.5345C34.1919 13.9872 34.6662 14.2402 35.1538 14.2402Z" fill="#CCEDE3"/>
<path d="M13.5345 33.9306C12.8596 33.5408 11.9967 33.7721 11.6072 34.447L9.98364 37.2591C9.59405 37.9339 9.82525 38.7968 10.5 39.1864C10.7222 39.3147 10.9648 39.3756 11.2042 39.3756C11.6918 39.3756 12.166 39.1226 12.4273 38.67L14.0509 35.8579C14.4405 35.1831 14.2093 34.3202 13.5345 33.9306Z" fill="#CCEDE3"/>
<path d="M28.4656 8.06968C28.6877 8.19798 28.9303 8.25893 29.1697 8.25893C29.6573 8.25893 30.1316 8.00591 30.3929 7.55329L32.0164 4.74117C32.4061 4.06629 32.1748 3.20338 31.5001 2.81387C30.8253 2.42409 29.9623 2.65538 29.5728 3.33026L27.9491 6.14229C27.5595 6.81717 27.7908 7.68008 28.4656 8.06968Z" fill="#CCEDE3"/>
</svg>
